<?xml version="1.0" encoding="UTF-8" standalone="no"?>
<!-- Created with Inkscape (http://www.inkscape.org/) -->

<svg
   xmlns:dc="http://purl.org/dc/elements/1.1/"
   xmlns:cc="http://creativecommons.org/ns#"
   xmlns:rdf="http://www.w3.org/1999/02/22-rdf-syntax-ns#"
   xmlns:svg="http://www.w3.org/2000/svg"
   xmlns="http://www.w3.org/2000/svg"
   xmlns:sodipodi="http://sodipodi.sourceforge.net/DTD/sodipodi-0.dtd"
   xmlns:inkscape="http://www.inkscape.org/namespaces/inkscape"
   width="224.96632mm"
   height="213.55165mm"
   viewBox="0 0 224.96632 213.55165"
   version="1.1"
   id="svg8"
   inkscape:version="0.92.1 r"
   sodipodi:docname="overview.svg">
  <defs
     id="defs2">
    <marker
       inkscape:stockid="Arrow2Sstart"
       orient="auto"
       refY="0"
       refX="0"
       id="marker4655"
       style="overflow:visible"
       inkscape:isstock="true">
      <path
         id="path4653"
         style="fill:#f5404f;fill-opacity:1;fill-rule:evenodd;stroke:#f5404f;stroke-width:0.625;stroke-linejoin:round;stroke-opacity:1"
         d="M 8.7185878,4.0337352 -2.2072895,0.01601326 8.7185884,-4.0017078 c -1.7454984,2.3720609 -1.7354408,5.6174519 -6e-7,8.035443 z"
         transform="matrix(0.3,0,0,0.3,-0.69,0)"
         inkscape:connector-curvature="0" />
    </marker>
    <marker
       inkscape:isstock="true"
       style="overflow:visible"
       id="marker4604"
       refX="0"
       refY="0"
       orient="auto"
       inkscape:stockid="Arrow2Sstart"
       inkscape:collect="always">
      <path
         inkscape:connector-curvature="0"
         transform="matrix(0.3,0,0,0.3,-0.69,0)"
         d="M 8.7185878,4.0337352 -2.2072895,0.01601326 8.7185884,-4.0017078 c -1.7454984,2.3720609 -1.7354408,5.6174519 -6e-7,8.035443 z"
         style="fill:#f5404f;fill-opacity:1;fill-rule:evenodd;stroke:#f5404f;stroke-width:0.625;stroke-linejoin:round;stroke-opacity:1"
         id="path4602" />
    </marker>
    <marker
       inkscape:stockid="Arrow2Send"
       orient="auto"
       refY="0"
       refX="0"
       id="Arrow2Send"
       style="overflow:visible"
       inkscape:isstock="true">
      <path
         id="path4668"
         style="fill:#172441;fill-opacity:1;fill-rule:evenodd;stroke:#172441;stroke-width:0.625;stroke-linejoin:round;stroke-opacity:1"
         d="M 8.7185878,4.0337352 -2.2072895,0.01601326 8.7185884,-4.0017078 c -1.7454984,2.3720609 -1.7354408,5.6174519 -6e-7,8.035443 z"
         transform="matrix(-0.3,0,0,-0.3,0.69,0)"
         inkscape:connector-curvature="0" />
    </marker>
    <marker
       inkscape:stockid="Arrow1Send"
       orient="auto"
       refY="0"
       refX="0"
       id="marker4961"
       style="overflow:visible"
       inkscape:isstock="true">
      <path
         id="path4959"
         d="M 0,0 5,-5 -12.5,0 5,5 Z"
         style="fill:#172441;fill-opacity:1;fill-rule:evenodd;stroke:#172441;stroke-width:1.00000003pt;stroke-opacity:1"
         transform="matrix(-0.2,0,0,-0.2,-1.2,0)"
         inkscape:connector-curvature="0" />
    </marker>
    <marker
       inkscape:stockid="Arrow1Send"
       orient="auto"
       refY="0"
       refX="0"
       id="Arrow1Send"
       style="overflow:visible"
       inkscape:isstock="true">
      <path
         id="path4650"
         d="M 0,0 5,-5 -12.5,0 5,5 Z"
         style="fill:#172441;fill-opacity:1;fill-rule:evenodd;stroke:#172441;stroke-width:1.00000003pt;stroke-opacity:1"
         transform="matrix(-0.2,0,0,-0.2,-1.2,0)"
         inkscape:connector-curvature="0" />
    </marker>
    <marker
       inkscape:stockid="Arrow2Sstart"
       orient="auto"
       refY="0"
       refX="0"
       id="marker5742"
       style="overflow:visible"
       inkscape:isstock="true">
      <path
         id="path5744"
         style="fill:#172441;fill-opacity:1;fill-rule:evenodd;stroke:#172441;stroke-width:0.625;stroke-linejoin:round;stroke-opacity:1"
         d="M 8.7185878,4.0337352 -2.2072895,0.01601326 8.7185884,-4.0017078 c -1.7454984,2.3720609 -1.7354408,5.6174519 -6e-7,8.035443 z"
         transform="matrix(0.3,0,0,0.3,-0.69,0)"
         inkscape:connector-curvature="0" />
    </marker>
    <marker
       inkscape:stockid="Arrow2Sstart"
       orient="auto"
       refY="0"
       refX="0"
       id="marker5742-5"
       style="overflow:visible"
       inkscape:isstock="true">
      <path
         id="path5744-3"
         style="fill:#172441;fill-opacity:1;fill-rule:evenodd;stroke:#172441;stroke-width:0.625;stroke-linejoin:round;stroke-opacity:1"
         d="M 8.7185878,4.0337352 -2.2072895,0.01601326 8.7185884,-4.0017078 c -1.7454984,2.3720609 -1.7354408,5.6174519 -6e-7,8.035443 z"
         transform="matrix(0.3,0,0,0.3,-0.69,0)"
         inkscape:connector-curvature="0" />
    </marker>
    <marker
       inkscape:stockid="Arrow2Send"
       orient="auto"
       refY="0"
       refX="0"
       id="Arrow2Send-5"
       style="overflow:visible"
       inkscape:isstock="true">
      <path
         inkscape:connector-curvature="0"
         id="path4668-6"
         style="fill:#172441;fill-opacity:1;fill-rule:evenodd;stroke:#172441;stroke-width:0.625;stroke-linejoin:round;stroke-opacity:1"
         d="M 8.7185878,4.0337352 -2.2072895,0.01601326 8.7185884,-4.0017078 c -1.7454984,2.3720609 -1.7354408,5.6174519 -6e-7,8.035443 z"
         transform="matrix(-0.3,0,0,-0.3,0.69,0)" />
    </marker>
    <marker
       inkscape:stockid="Arrow2Sstart"
       orient="auto"
       refY="0"
       refX="0"
       id="marker5742-3"
       style="overflow:visible"
       inkscape:isstock="true"
       inkscape:collect="always">
      <path
         id="path5744-6"
         style="fill:#f5404f;fill-opacity:1;fill-rule:evenodd;stroke:#f5404f;stroke-width:0.625;stroke-linejoin:round;stroke-opacity:1"
         d="M 8.7185878,4.0337352 -2.2072895,0.01601326 8.7185884,-4.0017078 c -1.7454984,2.3720609 -1.7354408,5.6174519 -6e-7,8.035443 z"
         transform="matrix(0.3,0,0,0.3,-0.69,0)"
         inkscape:connector-curvature="0" />
    </marker>
    <marker
       inkscape:stockid="Arrow2Send"
       orient="auto"
       refY="0"
       refX="0"
       id="Arrow2Send-7"
       style="overflow:visible"
       inkscape:isstock="true">
      <path
         id="path4668-5"
         style="fill:#172441;fill-opacity:1;fill-rule:evenodd;stroke:#172441;stroke-width:0.625;stroke-linejoin:round;stroke-opacity:1"
         d="M 8.7185878,4.0337352 -2.2072895,0.01601326 8.7185884,-4.0017078 c -1.7454984,2.3720609 -1.7354408,5.6174519 -6e-7,8.035443 z"
         transform="matrix(-0.3,0,0,-0.3,0.69,0)"
         inkscape:connector-curvature="0" />
    </marker>
  </defs>
  <sodipodi:namedview
     id="base"
     pagecolor="#ffffff"
     bordercolor="#666666"
     borderopacity="1.0"
     inkscape:pageopacity="0.0"
     inkscape:pageshadow="2"
     inkscape:zoom="0.58268539"
     inkscape:cx="-153.02507"
     inkscape:cy="533.37617"
     inkscape:document-units="mm"
     inkscape:current-layer="layer1"
     showgrid="false"
     inkscape:window-width="1920"
     inkscape:window-height="1016"
     inkscape:window-x="0"
     inkscape:window-y="27"
     inkscape:window-maximized="1"
     inkscape:lockguides="false"
     fit-margin-top="5"
     fit-margin-left="5"
     fit-margin-right="5"
     fit-margin-bottom="5"
     inkscape:object-nodes="true">
    <inkscape:grid
       type="xygrid"
       id="grid4591"
       originx="69.573698"
       originy="-104.4641" />
  </sodipodi:namedview>
  <metadata
     id="metadata5">
    <rdf:RDF>
      <cc:Work
         rdf:about="">
        <dc:format>image/svg+xml</dc:format>
        <dc:type
           rdf:resource="http://purl.org/dc/dcmitype/StillImage" />
        <dc:title></dc:title>
      </cc:Work>
    </rdf:RDF>
  </metadata>
  <g
     inkscape:label="Layer 1"
     inkscape:groupmode="layer"
     id="layer1"
     transform="translate(69.573699,21.01575)">
    <circle
       style="fill:#f5404f;fill-opacity:1;stroke:#f5404f;stroke-width:1.05833328;stroke-miterlimit:4;stroke-dasharray:none;stroke-opacity:1"
       id="path4641"
       cx="116.99469"
       cy="39.115044"
       r="6.0732636" />
    <rect
       style="opacity:1;fill:#f5404f;fill-opacity:1;stroke:#172441;stroke-width:1.32291663;stroke-miterlimit:4;stroke-dasharray:none;stroke-opacity:1"
       id="rect4140-6"
       width="56.06855"
       height="36.464924"
       x="14.04603"
       y="76.072914" />
    <text
       xml:space="preserve"
       style="font-style:normal;font-weight:normal;font-size:7.05555534px;line-height:125%;font-family:sans-serif;letter-spacing:0px;word-spacing:0px;fill:#ffffff;fill-opacity:1;stroke:none;stroke-width:0.26458332px;stroke-linecap:butt;stroke-linejoin:miter;stroke-opacity:1"
       x="20.713823"
       y="97.987839"
       id="text4545"><tspan
         sodipodi:role="line"
         id="tspan4543"
         x="20.713823"
         y="97.987839"
         style="font-size:9.87777805px;fill:#ffffff;fill-opacity:1;stroke-width:0.26458332px">antifurto</tspan></text>
    <rect
       y="76.072914"
       x="108.47913"
       height="36.72382"
       width="36.014961"
       id="rect4547"
       style="opacity:1;fill:#f5404f;fill-opacity:1;stroke:#172441;stroke-width:1.32291663;stroke-miterlimit:4;stroke-dasharray:none;stroke-opacity:1" />
    <text
       id="text4551"
       y="97.159897"
       x="117.87254"
       style="font-style:normal;font-weight:normal;font-size:7.05555534px;line-height:125%;font-family:sans-serif;letter-spacing:0px;word-spacing:0px;fill:#ffffff;fill-opacity:1;stroke:none;stroke-width:0.26458332px;stroke-linecap:butt;stroke-linejoin:miter;stroke-opacity:1"
       xml:space="preserve"><tspan
         style="font-size:9.87777805px;fill:#ffffff;fill-opacity:1;stroke-width:0.26458332px"
         y="97.159897"
         x="117.87254"
         id="tspan4549"
         sodipodi:role="line">fcgi</tspan></text>
    <path
       style="fill:none;fill-rule:evenodd;stroke:#172441;stroke-width:2.82231045;stroke-linecap:butt;stroke-linejoin:miter;stroke-miterlimit:4;stroke-dasharray:none;stroke-opacity:1;marker-start:url(#marker5742);marker-end:url(#Arrow2Send)"
       d="M 74.951982,96.848049 H 103.82931"
       id="path5740"
       inkscape:connector-curvature="0"
       sodipodi:nodetypes="cc" />
    <text
       xml:space="preserve"
       style="font-style:normal;font-weight:normal;font-size:7.05555534px;line-height:125%;font-family:sans-serif;letter-spacing:0px;word-spacing:0px;fill:#172441;fill-opacity:1;stroke:none;stroke-width:0.26458332px;stroke-linecap:butt;stroke-linejoin:miter;stroke-opacity:1"
       x="82.591652"
       y="89.064308"
       id="text5657"><tspan
         sodipodi:role="line"
         id="tspan5655"
         x="82.591652"
         y="89.064308"
         style="fill:#172441;fill-opacity:1;stroke-width:0.26458332px">zmq</tspan></text>
    <rect
       y="147.87413"
       x="55.95702"
       height="39.000313"
       width="57.267593"
       id="rect4547-3"
       style="opacity:1;fill:#172441;fill-opacity:1;stroke:#172441;stroke-width:1.32291663;stroke-miterlimit:4;stroke-dasharray:none;stroke-opacity:1" />
    <text
       id="text4551-6"
       y="171.05675"
       x="58.5266"
       style="font-style:normal;font-weight:normal;font-size:7.05555534px;line-height:125%;font-family:sans-serif;letter-spacing:0px;word-spacing:0px;fill:#ffffff;fill-opacity:1;stroke:none;stroke-width:0.26458332px;stroke-linecap:butt;stroke-linejoin:miter;stroke-opacity:1"
       xml:space="preserve"><tspan
         style="font-size:9.87777805px;fill:#ffffff;fill-opacity:1;stroke-width:0.26458332px"
         y="171.05675"
         x="58.5266"
         id="tspan4549-7"
         sodipodi:role="line">webserver</tspan></text>
    <path
       style="fill:none;fill-rule:evenodd;stroke:#172441;stroke-width:2.82231045;stroke-linecap:butt;stroke-linejoin:miter;stroke-miterlimit:4;stroke-dasharray:none;stroke-opacity:1;marker-start:url(#marker5742-5);marker-end:url(#Arrow2Send-5)"
       d="m 125.49652,121.59487 -22.74488,17.79242"
       id="path5740-2"
       inkscape:connector-curvature="0"
       sodipodi:nodetypes="cc" />
    <text
       xml:space="preserve"
       style="font-style:normal;font-weight:normal;font-size:7.05555534px;line-height:125%;font-family:sans-serif;letter-spacing:0px;word-spacing:0px;fill:#172441;fill-opacity:1;stroke:none;stroke-width:0.26458332px;stroke-linecap:butt;stroke-linejoin:miter;stroke-opacity:1"
       x="127.73078"
       y="132.49687"
       id="text5657-9"><tspan
         sodipodi:role="line"
         id="tspan5655-1"
         x="127.73078"
         y="132.49687"
         style="fill:#172441;fill-opacity:1;stroke-width:0.26458332px">fcgi</tspan><tspan
         sodipodi:role="line"
         x="127.73078"
         y="141.31631"
         style="fill:#172441;fill-opacity:1;stroke-width:0.26458332px"
         id="tspan8620">socket</tspan></text>
    <path
       sodipodi:nodetypes="cccccccccccc"
       inkscape:connector-curvature="0"
       id="path8599"
       d="m 23.797526,115.41742 6.7849,9.74643 1.903975,-3.43918 8.273715,11.99843 3.167759,-5.72197 8.761816,12.83046 -2.97739,5.3781 -7.612234,-10.94476 -3.167761,5.72196 -7.908155,-13.45118 -2.08218,3.76108 -5.144445,-15.87937"
       style="fill:#172441;fill-opacity:1;fill-rule:evenodd;stroke:#172441;stroke-width:1.05833328;stroke-linecap:butt;stroke-linejoin:miter;stroke-miterlimit:4;stroke-dasharray:none;stroke-opacity:1" />
    <text
       id="text8626"
       y="125.31532"
       x="53.647449"
       style="font-style:normal;font-weight:normal;font-size:7.05555534px;line-height:125%;font-family:sans-serif;letter-spacing:0px;word-spacing:0px;fill:#172441;fill-opacity:1;stroke:none;stroke-width:0.26458332px;stroke-linecap:butt;stroke-linejoin:miter;stroke-opacity:1"
       xml:space="preserve"><tspan
         id="tspan8624"
         style="fill:#172441;fill-opacity:1;stroke-width:0.26458332px"
         y="125.31532"
         x="53.647449"
         sodipodi:role="line">POSIX</tspan><tspan
         style="fill:#172441;fill-opacity:1;stroke-width:0.26458332px"
         y="134.13477"
         x="53.647449"
         sodipodi:role="line"
         id="tspan8630">signals</tspan></text>
    <path
       cx="-53.423344"
       cy="40.979954"
       rx="19.425344"
       ry="7.5453815"
       style="fill:#59afe1;fill-opacity:1;stroke:#000000;stroke-width:1.32291663;stroke-miterlimit:4;stroke-dasharray:none;stroke-opacity:1"
       id="path4529"
       d=""
       inkscape:connector-curvature="0" />
    <path
       inkscape:connector-curvature="0"
       d="m -45.079799,90.7657 q 6.0157,0 11.24453,-1.09146 5.22884,-1.09145 8.24938,-3.2236 v 4.31506 q 0,1.7514 -2.61442,3.24898 -2.61441,1.49758 -7.10715,2.37328 -4.49274,0.87571 -9.77234,0.87571 -5.2796,0 -9.77233,-0.87571 -4.49274,-0.8757 -7.10715,-2.37328 -2.61442,-1.49758 -2.61442,-3.24898 v -4.31506 q 3.02054,2.13215 8.24937,3.2236 5.22884,1.09146 11.24453,1.09146 z m 0,19.49392 q 6.0157,0 11.24453,-1.09145 5.22884,-1.09146 8.24938,-3.22361 v 4.31506 q 0,1.75141 -2.61442,3.24899 -2.61441,1.49757 -7.10715,2.37328 -4.49274,0.8757 -9.77234,0.8757 -5.2796,0 -9.77233,-0.8757 -4.49274,-0.87571 -7.10715,-2.37328 -2.61442,-1.49758 -2.61442,-3.24899 v -4.31506 q 3.02054,2.13215 8.24937,3.22361 5.22884,1.09145 11.24453,1.09145 z m 0,-9.74697 q 6.0157,0 11.24453,-1.09146 5.22884,-1.09145 8.24938,-3.2236 v 4.31506 q 0,1.75142 -2.61442,3.249 -2.61441,1.49758 -7.10715,2.37328 -4.49274,0.87571 -9.77234,0.87571 -5.2796,0 -9.77233,-0.87571 -4.49274,-0.8757 -7.10715,-2.37328 -2.61442,-1.49758 -2.61442,-3.249 v -4.31506 q 3.02054,2.13215 8.24937,3.2236 5.22884,1.09146 11.24453,1.09146 z m 0,-29.240859 q 5.2796,0 9.77234,0.87571 4.49274,0.8757 7.10715,2.37328 2.61442,1.49758 2.61442,3.24898 v 3.24899 q 0,1.7514 -2.61442,3.248979 -2.61441,1.49758 -7.10715,2.37328 -4.49274,0.8757 -9.77234,0.8757 -5.2796,0 -9.77233,-0.8757 -4.49274,-0.8757 -7.10715,-2.37328 -2.61442,-1.497579 -2.61442,-3.248979 v -3.24899 q 0,-1.7514 2.61442,-3.24898 2.61441,-1.49758 7.10715,-2.37328 4.49273,-0.87571 9.77233,-0.87571 z"
       id="path4594"
       style="fill:#172441;fill-opacity:1;stroke-width:0.02538269" />
    <path
       style="fill:none;fill-rule:evenodd;stroke:#f5404f;stroke-width:2.82231045;stroke-linecap:butt;stroke-linejoin:miter;stroke-miterlimit:4;stroke-dasharray:none;stroke-opacity:1;marker-start:url(#marker5742-3)"
       d="M -16.876821,96.194975 H 12.000512"
       id="path5740-3"
       inkscape:connector-curvature="0"
       sodipodi:nodetypes="cc" />
    <text
       xml:space="preserve"
       style="font-style:normal;font-weight:normal;font-size:10.58333302px;line-height:125%;font-family:sans-serif;letter-spacing:0px;word-spacing:0px;fill:#ffffff;fill-opacity:1;stroke:none;stroke-width:0.26458332px;stroke-linecap:butt;stroke-linejoin:miter;stroke-opacity:1"
       x="-52.865299"
       y="82.298973"
       id="text4580"><tspan
         sodipodi:role="line"
         id="tspan4578"
         x="-52.865299"
         y="82.298973"
         style="fill:#ffffff;fill-opacity:1;stroke-width:0.26458332px">HD</tspan></text>
    <g
       id="XMLID_5_"
       transform="matrix(1.3474214,0,0,1.3474214,14.73719,-16.01575)"
       style="fill:#172441;fill-opacity:1">
      <g
         id="XMLID_6_"
         style="fill:#172441;fill-opacity:1">
        <polygon
           style="fill:#172441;fill-opacity:1"
           id="XMLID_11_"
           points="12.5,0 0,8.1 8.7,15.1 21.2,7.3 " />
        <polygon
           style="fill:#172441;fill-opacity:1"
           id="XMLID_10_"
           points="0,21.9 12.5,30.1 21.2,22.8 8.7,15.1 " />
        <polygon
           style="fill:#172441;fill-opacity:1"
           id="XMLID_9_"
           points="21.2,22.8 30,30.1 42.4,22 33.8,15.1 " />
        <polygon
           style="fill:#172441;fill-opacity:1"
           id="XMLID_8_"
           points="42.4,8.1 30,0 21.2,7.3 33.8,15.1 " />
        <polygon
           style="fill:#172441;fill-opacity:1"
           id="XMLID_7_"
           points="21.3,39.5 33.8,32 33.8,29.2 30,31.7 21.3,24.4 12.5,31.7 8.8,29.2 8.8,32 " />
      </g>
    </g>
    <path
       sodipodi:nodetypes="cc"
       inkscape:connector-curvature="0"
       id="path4600"
       d="M 43.877577,45.247315 V 74.124648"
       style="fill:none;fill-rule:evenodd;stroke:#f5404f;stroke-width:2.82231045;stroke-linecap:butt;stroke-linejoin:miter;stroke-miterlimit:4;stroke-dasharray:none;stroke-opacity:1;marker-start:url(#marker4604)" />
    <g
       aria-label="pictures"
       style="font-style:normal;font-weight:normal;font-size:10.58333302px;line-height:125%;font-family:sans-serif;letter-spacing:0px;word-spacing:0px;fill:#f5404f;fill-opacity:1;stroke:none;stroke-width:0.26458332px;stroke-linecap:butt;stroke-linejoin:miter;stroke-opacity:1"
       id="text4608"
       transform="rotate(-41.315966,-75.686091,-165.02884)">
      <path
         d="m -185.71621,64.072433 v 3.06958 h -0.95602 v -7.989176 h 0.95602 v 0.8785 q 0.29972,-0.516765 0.75447,-0.764812 0.45992,-0.253214 1.09554,-0.253214 1.0542,0 1.71049,0.837158 0.66146,0.837158 0.66146,2.201416 0,1.364258 -0.66146,2.201416 -0.65629,0.837158 -1.71049,0.837158 -0.63562,0 -1.09554,-0.248047 -0.45475,-0.253214 -0.75447,-0.769979 z m 3.23494,-2.020548 q 0,-1.049031 -0.43408,-1.64331 -0.42891,-0.599447 -1.18339,-0.599447 -0.75448,0 -1.18856,0.599447 -0.42891,0.594279 -0.42891,1.64331 0,1.049032 0.42891,1.648478 0.43408,0.594279 1.18856,0.594279 0.75448,0 1.18339,-0.594279 0.43408,-0.599446 0.43408,-1.648478 z"
         style="fill:#f5404f;fill-opacity:1;stroke-width:0.26458332px"
         id="path4610"
         inkscape:connector-curvature="0" />
      <path
         d="m -179.91812,59.152837 h 0.95085 v 5.787761 h -0.95085 z m 0,-2.253092 h 0.95085 v 1.204061 h -0.95085 z"
         style="fill:#f5404f;fill-opacity:1;stroke-width:0.26458332px"
         id="path4612"
         inkscape:connector-curvature="0" />
      <path
         d="m -172.81777,59.375046 v 0.888835 q -0.40308,-0.222209 -0.81132,-0.33073 -0.40308,-0.113688 -0.81649,-0.113688 -0.92501,0 -1.43661,0.589112 -0.51159,0.583943 -0.51159,1.64331 0,1.059367 0.51159,1.648478 0.5116,0.583944 1.43661,0.583944 0.41341,0 0.81649,-0.108521 0.40824,-0.113688 0.81132,-0.335896 v 0.878499 q -0.39791,0.186035 -0.82683,0.279053 -0.42374,0.09302 -0.90434,0.09302 -1.30741,0 -2.07739,-0.821655 -0.76998,-0.821655 -0.76998,-2.216919 0,-1.415934 0.77515,-2.227254 0.78031,-0.81132 2.13424,-0.81132 0.43925,0 0.85783,0.09302 0.41857,0.08785 0.81132,0.268717 z"
         style="fill:#f5404f;fill-opacity:1;stroke-width:0.26458332px"
         id="path4614"
         inkscape:connector-curvature="0" />
      <path
         d="m -170.21328,57.509527 v 1.64331 h 1.95853 v 0.738973 h -1.95853 v 3.141927 q 0,0.707967 0.1912,0.909505 0.19637,0.201539 0.79065,0.201539 h 0.97668 v 0.795817 h -0.97668 q -1.10071,0 -1.51929,-0.408244 -0.41858,-0.413412 -0.41858,-1.498617 V 59.89181 h -0.69763 v -0.738973 h 0.69763 v -1.64331 z"
         style="fill:#f5404f;fill-opacity:1;stroke-width:0.26458332px"
         id="path4616"
         inkscape:connector-curvature="0" />
      <path
         d="m -167.09719,62.656499 v -3.503662 h 0.95084 v 3.467489 q 0,0.821655 0.3204,1.235066 0.32039,0.408244 0.96118,0.408244 0.76998,0 1.21439,-0.490926 0.44959,-0.490926 0.44959,-1.338419 v -3.281454 h 0.95084 v 5.787761 h -0.95084 v -0.888835 q -0.34623,0.5271 -0.80615,0.785482 -0.45476,0.253214 -1.05937,0.253214 -0.99736,0 -1.51412,-0.620117 -0.51676,-0.620117 -0.51676,-1.813843 z m 2.39261,-3.643188 z"
         style="fill:#f5404f;fill-opacity:1;stroke-width:0.26458332px"
         id="path4618"
         inkscape:connector-curvature="0" />
      <path
         d="m -156.92727,60.041672 q -0.1602,-0.09302 -0.3514,-0.134359 -0.18604,-0.04651 -0.41341,-0.04651 -0.80616,0 -1.24024,0.5271 -0.42891,0.521932 -0.42891,1.503784 v 3.04891 h -0.95602 v -5.787761 h 0.95602 v 0.89917 q 0.29972,-0.527099 0.78031,-0.780314 0.48059,-0.258382 1.16789,-0.258382 0.0982,0 0.21704,0.0155 0.11886,0.01034 0.26355,0.03617 z"
         style="fill:#f5404f;fill-opacity:1;stroke-width:0.26458332px"
         id="path4620"
         inkscape:connector-curvature="0" />
      <path
         d="m -151.19636,61.809006 v 0.465088 h -4.37182 q 0.062,0.981852 0.58911,1.498616 0.53227,0.511597 1.47794,0.511597 0.54777,0 1.05937,-0.134359 0.51677,-0.134359 1.02319,-0.403076 v 0.89917 q -0.51159,0.217041 -1.04903,0.330729 -0.53743,0.113688 -1.09037,0.113688 -1.38493,0 -2.19625,-0.806152 -0.80615,-0.806152 -0.80615,-2.180746 0,-1.421101 0.76481,-2.253092 0.76998,-0.837158 2.07223,-0.837158 1.16788,0 1.84484,0.754476 0.68213,0.749308 0.68213,2.041219 z m -0.95084,-0.279053 q -0.0103,-0.780314 -0.43925,-1.245402 -0.42375,-0.465088 -1.12655,-0.465088 -0.79582,0 -1.27641,0.449585 -0.47542,0.449585 -0.54777,1.266073 z"
         style="fill:#f5404f;fill-opacity:1;stroke-width:0.26458332px"
         id="path4622"
         inkscape:connector-curvature="0" />
      <path
         d="m -145.94603,59.32337 v 0.899169 q -0.40308,-0.206705 -0.83716,-0.310058 -0.43408,-0.103353 -0.89917,-0.103353 -0.70797,0 -1.06453,0.217041 -0.3514,0.217041 -0.3514,0.651123 0,0.330729 0.25321,0.521932 0.25322,0.186035 1.01803,0.356567 l 0.32556,0.07235 q 1.01286,0.217041 1.4366,0.61495 0.42892,0.392741 0.42892,1.100708 0,0.806152 -0.64079,1.276408 -0.63562,0.470255 -1.75183,0.470255 -0.46509,0 -0.97152,-0.09302 -0.50126,-0.08785 -1.05936,-0.268718 v -0.981852 q 0.52709,0.273885 1.03869,0.413411 0.5116,0.134359 1.01286,0.134359 0.67179,0 1.03353,-0.227376 0.36173,-0.232544 0.36173,-0.651123 0,-0.387573 -0.26355,-0.594279 -0.25838,-0.206706 -1.14205,-0.397909 l -0.33073,-0.07751 q -0.88366,-0.186035 -1.2764,-0.568441 -0.39274,-0.387573 -0.39274,-1.059367 0,-0.816487 0.57877,-1.260905 0.57878,-0.444417 1.64331,-0.444417 0.5271,0 0.99219,0.07751 0.46509,0.07751 0.85783,0.232544 z"
         style="fill:#f5404f;fill-opacity:1;stroke-width:0.26458332px"
         id="path4624"
         inkscape:connector-curvature="0" />
    </g>
    <path
       sodipodi:nodetypes="sscsscs"
       style="fill:none;fill-rule:evenodd;stroke:#000000;stroke-width:0.26458332px;stroke-linecap:butt;stroke-linejoin:miter;stroke-opacity:1"
       d="m 137.60324,35.983382 c -7.08796,-0.613993 -14.63867,-7.654469 -25.23432,-7.654469 -10.59564,0 -23.117761,7.971801 -23.117761,7.971801 0,0 12.522121,7.971801 23.117761,7.971801 10.59565,0 18.16572,-6.847578 25.23432,-7.654469 l 2.77992,-0.317332 z"
       id="path4639"
       inkscape:connector-curvature="0" />
    <path
       style="fill:none;fill-rule:evenodd;stroke:#f5404f;stroke-width:2.82231045;stroke-linecap:butt;stroke-linejoin:miter;stroke-miterlimit:4;stroke-dasharray:none;stroke-opacity:1;marker-start:url(#marker4655)"
       d="M 78.557272,68.095624 99.260058,47.963684"
       id="path4651"
       inkscape:connector-curvature="0"
       sodipodi:nodetypes="cc" />
  </g>
</svg>
